<svg viewBox="0 0 64 64" xmlns="http://www.w3.org/2000/svg"><circle cx="20.21" cy="58.47" r="1.26" fill="rgb(26,133,198)"/><circle cx="22.05" cy="59.29" r="1.25" fill="rgb(26,134,198)"/><circle cx="23.76" cy="60.05" r="1.2" fill="rgb(26,135,199)"/><circle cx="25.23" cy="60.71" r="1.13" fill="rgb(27,136,200)"/><circle cx="26.36" cy="61.21" r="1.04" fill="rgb(27,136,200)"/><circle cx="14.07" cy="55.74" r="1.04" fill="rgb(24,131,196)"/><circle cx="15.2" cy="56.24" r="1.13" fill="rgb(25,131,196)"/><circle cx="16.67" cy="56.89" r="1.2" fill="rgb(25,132,197)"/><circle cx="18.38" cy="57.66" r="1.25" fill="rgb(25,133,197)"/><circle cx="21.43" cy="55.73" r="1.68" fill="rgb(27,137,200)"/><circle cx="24.98" cy="57.31" r="1.65" fill="rgb(28,138,202)"/><circle cx="28.28" cy="58.79" r="1.57" fill="rgb(28,140,203)"/><circle cx="31.12" cy="60.05" r="1.43" fill="rgb(29,141,204)"/><circle cx="33.3" cy="61.02" r="1.25" fill="rgb(29,142,205)"/><circle cx="34.67" cy="61.63" r="1.04" fill="rgb(30,143,205)"/><circle cx="8.2" cy="49.84" r="1.04" fill="rgb(24,131,196)"/><circle cx="9.57" cy="50.45" r="1.25" fill="rgb(25,131,196)"/><circle cx="11.74" cy="51.42" r="1.43" fill="rgb(25,132,197)"/><circle cx="14.58" cy="52.68" r="1.57" fill="rgb(26,134,198)"/><circle cx="17.89" cy="54.16" r="1.65" fill="rgb(26,135,199)"/><circle cx="23.37" cy="51.38" r="2.04" fill="rgb(29,142,204)"/><circle cx="28.39" cy="53.61" r="2" fill="rgb(30,145,206)"/><circle cx="33.06" cy="55.69" r="1.88" fill="rgb(31,147,208)"/><circle cx="37.07" cy="57.48" r="1.68" fill="rgb(32,149,209)"/><circle cx="40.15" cy="58.85" r="1.43" fill="rgb(32,150,210)"/><circle cx="42.09" cy="59.71" r="1.13" fill="rgb(33,151,211)"/><circle cx="4.65" cy="43.05" r="1.13" fill="rgb(26,133,198)"/><circle cx="6.59" cy="43.91" r="1.43" fill="rgb(26,134,198)"/><circle cx="9.67" cy="45.28" r="1.68" fill="rgb(26,136,200)"/><circle cx="13.68" cy="47.07" r="1.88" fill="rgb(27,138,201)"/><circle cx="18.36" cy="49.15" r="2" fill="rgb(28,140,203)"/><circle cx="25.9" cy="45.7" r="2.32" fill="rgb(32,149,210)"/><circle cx="32.04" cy="48.44" r="2.27" fill="rgb(33,152,212)"/><circle cx="37.77" cy="50.99" r="2.12" fill="rgb(34,155,214)"/><circle cx="42.68" cy="53.18" r="1.88" fill="rgb(35,157,216)"/><circle cx="46.45" cy="54.85" r="1.57" fill="rgb(36,159,217)"/><circle cx="48.82" cy="55.91" r="1.2" fill="rgb(36,160,218)"/><circle cx="2.97" cy="35.5" r="1.2" fill="rgb(28,138,201)"/><circle cx="5.34" cy="36.55" r="1.57" fill="rgb(28,139,202)"/><circle cx="9.12" cy="38.23" r="1.88" fill="rgb(29,141,204)"/><circle cx="14.03" cy="40.42" r="2.12" fill="rgb(30,144,205)"/><circle cx="19.76" cy="42.97" r="2.27" fill="rgb(31,146,207)"/><circle cx="28.84" cy="39.09" r="2.49" fill="rgb(35,157,216)"/><circle cx="35.69" cy="42.14" r="2.43" fill="rgb(37,160,218)"/><circle cx="42.08" cy="44.99" r="2.27" fill="rgb(38,163,220)"/><circle cx="47.56" cy="47.43" r="2" fill="rgb(39,166,222)"/><circle cx="51.77" cy="49.3" r="1.65" fill="rgb(40,168,224)"/><circle cx="54.41" cy="50.48" r="1.25" fill="rgb(40,169,225)"/><circle cx="3.27" cy="27.71" r="1.25" fill="rgb(30,145,207)"/><circle cx="5.92" cy="28.89" r="1.65" fill="rgb(31,146,208)"/><circle cx="10.12" cy="30.76" r="2" fill="rgb(32,148,209)"/><circle cx="15.61" cy="33.2" r="2.27" fill="rgb(33,151,211)"/><circle cx="21.99" cy="36.04" r="2.43" fill="rgb(34,154,213)"/><circle cx="32" cy="32" r="2.55" fill="rgb(39,166,222)"/><circle cx="39.09" cy="35.16" r="2.49" fill="rgb(40,169,225)"/><circle cx="45.7" cy="38.1" r="2.32" fill="rgb(45,173,227)"/><circle cx="51.38" cy="40.63" r="2.04" fill="rgb(52,175,228)"/><circle cx="55.73" cy="42.57" r="1.68" fill="rgb(58,178,229)"/><circle cx="58.47" cy="43.79" r="1.26" fill="rgb(61,179,229)"/><circle cx="5.53" cy="20.21" r="1.26" fill="rgb(34,153,213)"/><circle cx="8.27" cy="21.43" r="1.68" fill="rgb(34,155,214)"/><circle cx="12.62" cy="23.37" r="2.04" fill="rgb(35,157,215)"/><circle cx="18.3" cy="25.9" r="2.32" fill="rgb(36,159,217)"/><circle cx="24.91" cy="28.84" r="2.49" fill="rgb(38,163,220)"/><circle cx="35.16" cy="24.91" r="2.49" fill="rgb(51,175,228)"/><circle cx="42.01" cy="27.96" r="2.43" fill="rgb(60,179,229)"/><circle cx="48.39" cy="30.8" r="2.27" fill="rgb(68,182,231)"/><circle cx="53.88" cy="33.24" r="2" fill="rgb(75,185,232)"/><circle cx="58.08" cy="35.11" r="1.65" fill="rgb(80,187,233)"/><circle cx="60.73" cy="36.29" r="1.25" fill="rgb(84,188,233)"/><circle cx="9.59" cy="13.52" r="1.25" fill="rgb(38,163,220)"/><circle cx="12.23" cy="14.7" r="1.65" fill="rgb(38,164,221)"/><circle cx="16.44" cy="16.57" r="2" fill="rgb(39,166,222)"/><circle cx="21.92" cy="19.01" r="2.27" fill="rgb(40,168,224)"/><circle cx="28.31" cy="21.86" r="2.43" fill="rgb(42,171,226)"/><circle cx="38.1" cy="18.3" r="2.32" fill="rgb(73,184,231)"/><circle cx="44.24" cy="21.03" r="2.27" fill="rgb(81,187,233)"/><circle cx="49.97" cy="23.58" r="2.12" fill="rgb(88,190,234)"/><circle cx="54.88" cy="25.77" r="1.88" fill="rgb(95,193,235)"/><circle cx="58.66" cy="27.45" r="1.57" fill="rgb(99,195,236)"/><circle cx="61.03" cy="28.5" r="1.2" fill="rgb(102,196,236)"/><circle cx="15.18" cy="8.09" r="1.2" fill="rgb(44,172,226)"/><circle cx="17.55" cy="9.15" r="1.57" fill="rgb(47,173,227)"/><circle cx="21.32" cy="10.82" r="1.88" fill="rgb(51,175,228)"/><circle cx="26.23" cy="13.01" r="2.12" fill="rgb(58,178,229)"/><circle cx="31.96" cy="15.56" r="2.27" fill="rgb(65,181,230)"/><circle cx="40.63" cy="12.62" r="2.04" fill="rgb(92,192,235)"/><circle cx="45.64" cy="14.85" r="2" fill="rgb(98,194,236)"/><circle cx="50.32" cy="16.93" r="1.88" fill="rgb(104,197,237)"/><circle cx="54.33" cy="18.72" r="1.68" fill="rgb(110,199,238)"/><circle cx="57.41" cy="20.09" r="1.43" fill="rgb(113,201,238)"/><circle cx="59.35" cy="20.95" r="1.13" fill="rgb(116,202,239)"/><circle cx="21.91" cy="4.29" r="1.13" fill="rgb(68,182,231)"/><circle cx="23.85" cy="5.15" r="1.43" fill="rgb(70,183,231)"/><circle cx="26.93" cy="6.52" r="1.68" fill="rgb(74,185,232)"/><circle cx="30.94" cy="8.31" r="1.88" fill="rgb(79,187,232)"/><circle cx="35.61" cy="10.39" r="2" fill="rgb(86,189,233)"/><circle cx="42.57" cy="8.27" r="1.68" fill="rgb(107,198,237)"/><circle cx="46.11" cy="9.84" r="1.65" fill="rgb(111,200,238)"/><circle cx="49.42" cy="11.32" r="1.57" fill="rgb(115,201,238)"/><circle cx="52.26" cy="12.58" r="1.43" fill="rgb(119,203,239)"/><circle cx="54.43" cy="13.55" r="1.25" fill="rgb(122,204,240)"/><circle cx="55.8" cy="14.16" r="1.04" fill="rgb(124,205,240)"/><circle cx="29.33" cy="2.37" r="1.04" fill="rgb(90,191,234)"/><circle cx="30.7" cy="2.98" r="1.25" fill="rgb(91,192,234)"/><circle cx="32.88" cy="3.95" r="1.43" fill="rgb(94,193,235)"/><circle cx="35.72" cy="5.21" r="1.57" fill="rgb(98,194,236)"/><circle cx="39.02" cy="6.69" r="1.65" fill="rgb(102,196,236)"/><circle cx="43.79" cy="5.53" r="1.26" fill="rgb(116,201,239)"/><circle cx="45.62" cy="6.34" r="1.25" fill="rgb(118,202,239)"/><circle cx="47.33" cy="7.11" r="1.2" fill="rgb(120,203,239)"/><circle cx="48.8" cy="7.76" r="1.13" fill="rgb(122,204,240)"/><circle cx="49.93" cy="8.26" r="1.04" fill="rgb(124,205,240)"/><circle cx="37.64" cy="2.79" r="1.04" fill="rgb(108,198,237)"/><circle cx="38.77" cy="3.29" r="1.13" fill="rgb(109,199,237)"/><circle cx="40.24" cy="3.95" r="1.2" fill="rgb(111,200,238)"/><circle cx="41.95" cy="4.71" r="1.25" fill="rgb(113,201,238)"/></svg>
